<?xml version="1.0" encoding="iso-8859-1"?>
<!-- Generator: Adobe Illustrator 19.0.0, SVG Export Plug-In . SVG Version: 6.00 Build 0)  -->
<svg version="1.1" id="Layer_1" xmlns="http://www.w3.org/2000/svg" xmlns:xlink="http://www.w3.org/1999/xlink" x="0px" y="0px"
	 viewBox="0 0 512 512" style="enable-background:new 0 0 512 512;" xml:space="preserve">
<path style="fill:#BFBFBF;" d="M389.565,182.738v24.09c0,8.441-5.958,15.708-14.235,17.363l-44.153,8.831
	c-3.074,10.986-7.431,21.431-12.914,31.164l24.979,37.47c4.683,7.023,3.757,16.375-2.213,22.343l-17.034,17.034
	c-5.968,5.968-15.32,6.894-22.343,2.213l-37.469-24.979c-9.734,5.483-20.177,9.839-31.164,12.912l-8.831,44.153
	c-1.655,8.277-8.923,14.235-17.363,14.235h-24.09c-8.441,0-15.708-5.958-17.363-14.235l-8.831-44.153
	c-10.986-3.074-21.431-7.431-31.164-12.912l-37.469,24.979c-7.023,4.683-16.375,3.757-22.343-2.213L48.53,323.999
	c-5.968-5.968-6.894-15.32-2.213-22.343l24.979-37.47c-5.483-9.734-9.839-20.177-12.914-31.164l-44.153-8.831
	C5.958,222.535,0,215.268,0,206.827v-24.09c0-8.441,5.958-15.708,14.235-17.363l44.153-8.831
	c3.074-10.986,7.431-21.431,12.914-31.164L46.322,87.91c-4.683-7.023-3.757-16.375,2.213-22.343l17.034-17.034
	c5.968-5.968,15.32-6.894,22.343-2.213l37.469,24.979c9.734-5.483,20.177-9.839,31.164-12.912l8.831-44.153
	C167.03,5.958,174.297,0,182.738,0h24.09c8.441,0,15.708,5.958,17.363,14.235l8.831,44.153c10.986,3.074,21.431,7.431,31.164,12.912
	l37.47-24.979c7.023-4.683,16.375-3.757,22.343,2.213l17.034,17.034c5.968,5.968,6.894,15.32,2.213,22.343l-24.979,37.469
	c5.483,9.734,9.839,20.178,12.914,31.164l44.153,8.831C383.607,167.03,389.565,174.297,389.565,182.738z"/>
<path style="fill:#E2E2E2;" d="M280.271,194.783c0,47.214-38.274,85.488-85.488,85.488s-85.488-38.274-85.488-85.488
	s38.274-85.488,85.488-85.488S280.271,147.568,280.271,194.783z"/>
<path style="fill:#6D6D6D;" d="M237.294,194.783c0,23.479-19.033,42.512-42.512,42.512s-42.512-19.033-42.512-42.512
	s19.033-42.512,42.512-42.512S237.294,171.304,237.294,194.783z"/>
<path style="fill:#999999;" d="M211.478,194.783c0,18.977-12.437,35.045-29.604,40.51c-17.166-5.465-29.604-21.533-29.604-40.51
	s12.437-35.045,29.604-40.51C199.041,159.737,211.478,175.805,211.478,194.783z"/>
<path style="fill:#5D7EAC;" d="M512,376.085v15.83c0,5.546-3.916,10.322-9.354,11.41l-29.015,5.803
	c-2.02,7.219-4.883,14.083-8.486,20.479l16.415,24.623c3.076,4.616,2.469,10.761-1.454,14.683l-11.194,11.194
	c-3.922,3.922-10.068,4.531-14.683,1.454l-24.623-16.415c-6.397,3.603-13.26,6.466-20.479,8.486l-5.803,29.015
	c-1.087,5.439-5.864,9.354-11.411,9.354h-15.83c-5.547,0-10.322-3.916-11.411-9.354l-5.803-29.015
	c-7.219-2.02-14.083-4.883-20.479-8.486l-24.623,16.415c-4.616,3.076-10.761,2.469-14.683-1.454l-11.194-11.194
	c-3.922-3.922-4.531-10.068-1.454-14.683l16.415-24.623c-3.603-6.397-6.466-13.26-8.486-20.479l-29.015-5.803
	c-5.439-1.087-9.354-5.864-9.354-11.41v-15.83c0-5.546,3.916-10.322,9.354-11.411l29.015-5.803
	c2.02-7.219,4.883-14.083,8.486-20.479l-16.415-24.623c-3.076-4.615-2.469-10.761,1.454-14.683l11.194-11.194
	c3.922-3.922,10.067-4.531,14.683-1.454l24.623,16.415c6.397-3.603,13.26-6.466,20.479-8.486l5.803-29.015
	c1.087-5.439,5.863-9.354,11.411-9.354h15.83c5.547,0,10.322,3.916,11.411,9.354l5.803,29.015c7.219,2.02,14.083,4.883,20.479,8.486
	l24.623-16.415c4.616-3.076,10.761-2.469,14.683,1.454l11.194,11.194c3.922,3.922,4.531,10.067,1.454,14.683l-16.415,24.623
	c3.603,6.397,6.466,13.26,8.486,20.479l29.015,5.803C508.084,365.763,512,370.538,512,376.085z"/>
<path style="fill:#ABC5FF;" d="M448,384c0,35.346-28.654,64-64,64s-64-28.654-64-64s28.654-64,64-64S448,348.654,448,384z"/>
<path style="fill:#5D7EAC;" d="M422.4,384c0,21.208-17.192,38.4-38.4,38.4c-21.208,0-38.4-17.192-38.4-38.4
	c0-21.208,17.192-38.4,38.4-38.4C405.208,345.6,422.4,362.792,422.4,384z"/>
<path style="fill:#809DED;" d="M396.8,384c0,16.718-10.687,30.934-25.6,36.206c-14.913-5.272-25.6-19.488-25.6-36.206
	c0-16.718,10.687-30.934,25.6-36.206C386.113,353.066,396.8,367.282,396.8,384z"/>
<g>
</g>
<g>
</g>
<g>
</g>
<g>
</g>
<g>
</g>
<g>
</g>
<g>
</g>
<g>
</g>
<g>
</g>
<g>
</g>
<g>
</g>
<g>
</g>
<g>
</g>
<g>
</g>
<g>
</g>
</svg>
